<?xml version="1.0" ?><svg id="Healthy" viewBox="0 0 512 512" xmlns="http://www.w3.org/2000/svg"><path d="M408.6944,202.4629s-7.2881-11.5918-7.9492-12.6006c-24.4615-37.272-63.9436-63.7852-108.58-73.0278a62.6856,62.6856,0,0,0,21.4778-47.6187c0-33.875-26.1055-61.4336-58.1933-61.4336s-58.1934,27.5586-58.1934,61.4336a62.6784,62.6784,0,0,0,21.5576,47.6851c-43.4624,9.2666-80.8608,34.0117-105.4951,69.8872-1.37,1.9951-10.0127,15.6758-10.0127,15.6758a70.13,70.13,0,0,0,7.2412,83.834l51.0337,56.72L114.5772,483.4736a15.7483,15.7483,0,0,0,14.9346,20.7442h50.6855a15.6521,15.6521,0,0,0,15.0166-11.0088l50.915-157.3223a10.3528,10.3528,0,0,1,9.834-7.1806h.0362a10.3437,10.3437,0,0,1,9.873,7.1816L316.7637,493.14a15.6741,15.6741,0,0,0,15.0391,11.0782h50.6855a15.7472,15.7472,0,0,0,14.9326-20.7451L350.4192,343.0176l51.033-56.7188A70.1319,70.1319,0,0,0,408.6944,202.4629ZM209.2559,69.2158c0-27.2578,20.7227-49.4336,46.1934-49.4336s46.1933,22.1758,46.1933,49.4336-20.7226,49.4326-46.1933,49.4326S209.2559,96.4727,209.2559,69.2158ZM346.0435,329.9414l-6.1694-18.4355a90.1364,90.1364,0,0,1-4.6661-28.3965l-.0029-.8985,23.041-30.3828a20.0384,20.0384,0,0,0-.1631-24.4l-16.3281-20.9453a10.48,10.48,0,0,0-18.7451,6.4717l.1885,66.7217a6.0734,6.0734,0,0,0,.0029,1.1465l.0068,2.32a102.09,102.09,0,0,0,5.2872,32.1719L386.042,487.2812a3.7482,3.7482,0,0,1-3.5537,4.9366H331.8028a3.7516,3.7516,0,0,1-3.6-2.7041L277.2881,332.1924a22.304,22.304,0,0,0-21.289-15.4863h-.0782a22.33,22.33,0,0,0-21.21,15.4863L183.7764,489.5811a3.7316,3.7316,0,0,1-3.5791,2.6367H129.5118a3.7493,3.7493,0,0,1-3.5547-4.9366l57.5488-171.9677a102.1357,102.1357,0,0,0,5.2861-32.1709l.0069-2.33a6.0352,6.0352,0,0,0,.0029-1.127l.1875-66.73a10.48,10.48,0,0,0-18.7451-6.4727l-16.3281,20.9453a20.0371,20.0371,0,0,0-.1622,24.4l23.0411,30.3838-.003.8975a90.1606,90.1606,0,0,1-4.666,28.3965l-6.17,18.4365-46.4895-51.67a58.0842,58.0842,0,0,1-5.9961-69.4317s8.4629-13.4,9.74-15.26c23.2861-33.9131,58.8857-57.1377,100.24-65.3975l10.179-2.0322a55.18,55.18,0,0,0,43.6479-.0044L287.68,128.16c42.3809,8.2031,79.9346,33.0918,103.0323,68.2861.6181.94,7.8183,12.3945,7.8183,12.3945a58.0845,58.0845,0,0,1-5.998,69.4317ZM335.15,262.4248l-.127-45.0605,13.5967,17.4414a8.0255,8.0255,0,0,1,.0644,9.7724Zm-158.2989.001-13.5351-17.8487a8.0256,8.0256,0,0,1,.0654-9.7724l13.5957-17.44Z"/><path d="M347.74,101.1738h14.1064V115.28a6,6,0,1,0,12,0V101.1738h14.1055a6,6,0,0,0,0-12H373.8467V75.0684a6,6,0,0,0-12,0V89.1738H347.74a6,6,0,0,0,0,12Z"/><path d="M276.4864,174.9648a31.7762,31.7762,0,0,0-21.0274,7.9776,31.7362,31.7362,0,0,0-52.7744,24.1738,46.6943,46.6943,0,0,0,18.4248,37.044l25.7422,19.4746a14.31,14.31,0,0,0,17.1973-.001l25.74-19.4736a46.6943,46.6943,0,0,0,18.4248-37.044v-.4228A31.7643,31.7643,0,0,0,276.4864,174.9648Z"/></svg>