<?xml version="1.0" encoding="utf-8"?>
<!-- Generator: Adobe Illustrator 24.2.1, SVG Export Plug-In . SVG Version: 6.00 Build 0)  -->
<svg version="1.1" id="Capa_1" xmlns="http://www.w3.org/2000/svg" xmlns:xlink="http://www.w3.org/1999/xlink" x="0px" y="0px"
	 viewBox="0 0 511.7 511.7" style="enable-background:new 0 0 511.7 511.7;" xml:space="preserve">
<g>
	<path d="M427.2,111.2l-25.4-25.4c-5.4-5.4-15.1-5.4-21.2,0l-10.3,10.9c16.9,12.1,33.3,27.8,46,46l10.9-10.9
		C433.2,127,433.8,117.3,427.2,111.2L427.2,111.2z M277.7,182L35,424.7c-5.4,5.4-5.4,15.1,0,21.2l30.9,30.9c5.4,5.4,15.1,5.4,21.2,0
		l243.9-242.1L277.7,182L277.7,182z"/>
	<path d="M381.8,130.6C312.2,60.4,221.4,26.5,139.1,31.3c57.5,25.4,116.2,64.2,171.3,113.2l-22.4,22.4l56.9,56.9l22.4-22.4
		c49,54.5,87.8,113.8,113.2,171.3C485.3,291,452,200.2,381.8,130.6L381.8,130.6z"/>
</g>
</svg>
