<svg id="Capa_1" data-name="Capa 1" xmlns="http://www.w3.org/2000/svg" viewBox="0 0 358.39226 357.67933"><title>chronomancy2</title><path d="M343.657,237.412c-21.188,1.306-49.053,22.476-75.93,34.648-32.939,14.916-84.217,2.924-84.222,2.924,7.91-3.713,40.057-11.369,46.526-14.209,34.411-15.146,31.495-46.689,15.106-46.422-21.652.346-34.362,5.659-77.566,11.551-32.746,4.451-71.476,2.824-90.052,9.916C51.295,245.837,9.061,313.23,9.061,313.23l65.3,63.285s40.43-39.817,60.099-39.817c44.823,0,46.633-.599,88.255-2.864,17.699-.946,21.393-1.673,31.521-5.087,53.951-18.24,111.881-66.818,112.945-72.647C369.647,242.55,354.844,236.736,343.657,237.412Z" transform="translate(-9.06101 -18.83571)"/><path d="M289.64958,58.78219A88.61485,88.61485,0,0,0,270.40381,37.75,87.189,87.189,0,0,0,245.2462,23.84514,88.07852,88.07852,0,0,0,143.879,56.18539l-5.34093-2.46788a2.80667,2.80667,0,0,0-3.95966,2.79939l2.37579,25.618a2.79651,2.79651,0,0,0,4.40167,2.02587l21.01379-14.86252a2.78973,2.78973,0,0,0-.46042-4.82525l-4.88051-2.22846A73.9817,73.9817,0,0,1,240.49461,37.2343a73.49025,73.49025,0,0,1,21.10588,11.63954A74.358,74.358,0,0,1,277.7522,66.51733a73.26455,73.26455,0,0,1,9.7426,22.19248,7.10885,7.10885,0,0,0,6.888,5.35935,7.23091,7.23091,0,0,0,1.74962-.221,7.12493,7.12493,0,0,0,5.15676-8.63757A87.17419,87.17419,0,0,0,289.64958,58.78219Z" transform="translate(-9.06101 -18.83571)"/><path d="M295.04576,135.96783a2.79652,2.79652,0,0,0-4.40167-2.02587L269.6303,148.80448a2.78974,2.78974,0,0,0,.46042,4.82526l4.88051,2.22845a73.98173,73.98173,0,0,1-83.46585,25.0103,73.49054,73.49054,0,0,1-21.10588-11.63955,74.35777,74.35777,0,0,1-16.15171-17.64348A73.26444,73.26444,0,0,1,144.5052,129.393a7.11336,7.11336,0,1,0-13.79433,3.48082,88.15029,88.15029,0,0,0,128.4954,55.19576,88.94487,88.94487,0,0,0,28.9331-26.1153l5.34093,2.46788a2.80666,2.80666,0,0,0,3.95966-2.79939Z" transform="translate(-9.06101 -18.83571)"/><path d="M192.49991,164.01692a60.56114,60.56114,0,1,0-19.1721-12.92873A60.16526,60.16526,0,0,0,192.49991,164.01692Zm-12.7814-62.69146h-9.28217A46.17483,46.17483,0,0,1,208.891,62.87076v9.28217a7.109,7.109,0,0,0,14.21793,0V62.87076a46.17483,46.17483,0,0,1,38.45469,38.4547h-9.28217a7.109,7.109,0,0,0,0,14.21792h9.28217a46.22228,46.22228,0,0,1-38.47311,38.4547v-9.28217a7.109,7.109,0,0,0-14.21793,0v9.28217a46.1748,46.1748,0,0,1-38.45469-38.4547h9.28217a7.109,7.109,0,0,0,.01842-14.21792Z" transform="translate(-9.06101 -18.83571)"/><path d="M210.9169,112.744a4.23449,4.23449,0,0,0,.90244.82877c.16575.12892.34992.25784.51567.38675a1.61936,1.61936,0,0,0,.18417.1105l25.19446,17.21989a.60444.60444,0,0,0,.81035-.884l-16.649-20.05611L241.305,80.25641a.74543.74543,0,0,0-1.12343-.95769l-28.54635,25.06554a6.68342,6.68342,0,0,0-1.105,1.27077,6.03364,6.03364,0,0,0-.442,5.76452A8.0322,8.0322,0,0,0,210.9169,112.744Z" transform="translate(-9.06101 -18.83571)"/></svg>