<svg id="Capa_1" data-name="Capa 1" xmlns="http://www.w3.org/2000/svg" xmlns:xlink="http://www.w3.org/1999/xlink" viewBox="0 0 292.59461 522"><defs><style>.cls-1{fill:none;}.cls-2{clip-path:url(#clip-path);}.cls-3{fill:#fff;}</style><clipPath id="clip-path" transform="translate(-109.70363)"><rect class="cls-1" x="1.48349" width="512.00201" height="512.00201"/></clipPath></defs><title>loopingPotion</title><g class="cls-2"><circle cx="143.30788" cy="387" r="135"/><path d="M228.583,54.857H283.44a9.14305,9.14305,0,0,0,9.143-9.143V9.143A9.17074,9.17074,0,0,0,283.44,0H228.583a9.17073,9.17073,0,0,0-9.143,9.143V45.714A9.14241,9.14241,0,0,0,228.583,54.857Z" transform="translate(-109.70363)"/><path d="M210.297,109.714h91.429a9.14306,9.14306,0,0,0,9.143-9.143V82.286a9.143,9.143,0,0,0-9.143-9.143H210.297a9.14305,9.14305,0,0,0-9.143,9.143v18.286A9.14283,9.14283,0,0,0,210.297,109.714Z" transform="translate(-109.70363)"/><path d="M401.981,378.263a146.21908,146.21908,0,0,0-83.707-122.72,45.33873,45.33873,0,0,1-25.691-41.051V137.143A9.14305,9.14305,0,0,0,283.44,128H228.583a9.14306,9.14306,0,0,0-9.143,9.143V215.66a44.73678,44.73678,0,0,1-26.133,40.098,146.29413,146.29413,0,0,0-16.564,255.146,7.686,7.686,0,0,0,4.114,1.097h150.4a6.89294,6.89294,0,0,0,3.84-1.097A146.22158,146.22158,0,0,0,401.981,378.263ZM383.64,399.146a124.92188,124.92188,0,0,1-53.206,92.923,9.10656,9.10656,0,0,1-5.303,1.646H186.8a9.09953,9.09953,0,0,1-5.303-1.646A126.44568,126.44568,0,0,1,128.468,378.24a124.97149,124.97149,0,0,1,39.68-80.549,89.02885,89.02885,0,0,1,61.166-23.406h53.303a89.25342,89.25342,0,0,1,62.72,24.869A124.92527,124.92527,0,0,1,383.64,399.146Z" transform="translate(-109.70363)"/><g id="Layer_2" data-name="Layer 2"><path class="cls-3" d="M293.03242,377.54369c2.81252-.81256,9.39868-2.72,12.46019-11.72429l6.30755-18.54886,2.53709.86173a2.23663,2.23663,0,0,0,2.83-1.393l3.384-9.95166a2.235,2.235,0,0,0-1.3941-2.82891l-81.76971-27.80373a2.23777,2.23777,0,0,0-2.83,1.39357l-3.384,9.95113a2.23828,2.23828,0,0,0,1.39357,2.82943l2.53708.86279-6.42068,18.88669c-3.03192,8.916-1.02615,11.92677,2.77815,16.48336l16.5468,19.8145-1.84452,5.42415c-6.33134,1.374-22.87655,4.979-25.10383,5.62239-2.812.81363-9.39973,2.719-12.46178,11.72429l-5.43,15.97107-2.53761-.86226a2.238,2.238,0,0,0-2.83049,1.39305l-3.38243,9.95112a2.23714,2.23714,0,0,0,1.39357,2.83l81.77024,27.80426a2.238,2.238,0,0,0,2.82942-1.39463l3.3819-9.94955a2.2362,2.2362,0,0,0-1.39356-2.83049l-2.536-.86278,5.54362-16.3089c3.03191-8.91494,1.02773-11.9273-2.77762-16.48177l-16.54575-19.815,1.84294-5.42415C274.25834,381.79366,290.80355,378.18919,293.03242,377.54369Zm-34.557,14.46279,17.99324,21.54482c1.38035,1.65316,2.11149,2.5556,2.30974,3.3819.23843.99232-.08036,2.7496-.97169,5.36916l-5.54468,16.31-61.49263-20.90883,5.4289-15.97056c1.71447-5.04086,4.82251-5.94065,7.091-6.59726,1.77422-.51281,16.99458-3.84977,26.7924-5.96921a4.0154,4.0154,0,0,0,2.95156-2.63171l3.30154-9.709a4.01582,4.01582,0,0,0-.719-3.86457L237.6771,351.48085l-.05445-.06608c-1.38089-1.65315-2.112-2.55559-2.30976-3.38242-.2379-.99231.0793-2.748.97117-5.36917l6.42121-18.88668,61.49421,20.90885-6.30806,18.5494c-1.71341,5.04191-4.82041,5.94065-7.08945,6.59726-1.77315.51333-16.994,3.85135-26.79081,5.96919a4.01812,4.01812,0,0,0-2.95367,2.63225l-3.30048,9.70794A4.01684,4.01684,0,0,0,258.47547,392.00648Z" transform="translate(-109.70363)"/><path class="cls-3" d="M307.05589,468.563c-1.79483,1.01716-3.6457,1.991-5.49762,2.89393q-.44963.21968-.86861.47951a9.45789,9.45789,0,0,0-.886.35949,100.75183,100.75183,0,0,1-25.05678,7.91787c-.1105.01586-.221.0222-.33253.04228-2.03591.36-4.10775.65977-6.15687.8945-.0222.0037-.04494.009-.06715.01164a104.0548,104.0548,0,0,1-11.41343.627,102.13533,102.13533,0,0,1-96.15426-68.04494c-.21094-.60427-.42346-1.20694-.62383-1.81228a102.01984,102.01984,0,0,1,.02221-64.26918c.07348-.221.14432-.44038.21887-.6619q.30213-.8834.62224-1.761.14829-.41237.30029-.821A102.37817,102.37817,0,0,1,232.29,280.85072c.02062-.00476.04176-.00635.06238-.0111.48585-.12054.97539-.2379,1.46547-.351.055-.01216.10785-.03225.16072-.04547a101.92467,101.92467,0,0,1,22.2707-2.56563l.08829,10.483c.027,3.25449,2.0819,4.19446,4.56347,2.09089l22.14382-18.76985a4.7635,4.7635,0,0,0-.065-7.57582l-22.45469-18.39555c-2.51752-2.06128-4.555-1.08694-4.52752,2.167l.08829,10.46235a120.69163,120.69163,0,0,0-85.22349,35.57834q-3.3671,3.3671-6.43126,6.94724c-.01216.01374-.02484.02484-.03753.03965-.0756.08776-.147.17921-.22152.267a120.49524,120.49524,0,0,0-28.83993,75.1032c-.01956.21622-.04282.43087-.0481.65185-.02168.92834-.03278,1.872-.03278,2.80512,0,1.53.03119,3.08055.08881,4.61.00635.17921.02961.35421.04706.53025a120.42841,120.42841,0,0,0,25.17572,69.17946c.05234.06819.09411.14115.147.20935,1.50248,1.93915,3.09113,3.86034,4.71573,5.70856.10467.119.2194.22205.32725.33518q2.467,2.78186,5.11011,5.43789a120.604,120.604,0,0,0,65.41,33.87074c.07507.01375.15068.02854.22575.04229.056.00845.11154.01216.16653.02062a123.08239,123.08239,0,0,0,20.11161,1.6542,120.49258,120.49258,0,0,0,51.283-11.32409,9.66543,9.66543,0,0,0,.995-.54348,9.40673,9.40673,0,0,0,1.06579-.4425c2.21143-1.07954,4.42019-2.23944,6.56183-3.45167a9.77065,9.77065,0,1,0-9.62652-17.00565Z" transform="translate(-109.70363)"/><path class="cls-3" d="M341.441,322.96341a9.76963,9.76963,0,1,0,16.21744-10.8985c-1.374-2.04331-2.82574-4.06969-4.32239-6.02207a9.76893,9.76893,0,1,0-15.517,11.87232C339.07259,319.55456,340.29117,321.25317,341.441,322.96341Z" transform="translate(-109.70363)"/><path class="cls-3" d="M353.84889,348.62234c.62805,1.96189,1.20483,3.97348,1.71659,5.97977a9.77054,9.77054,0,0,0,18.93585-4.82568c-.608-2.38588-1.29525-4.77916-2.04383-7.11376a9.76983,9.76983,0,1,0-18.60861,5.95967Z" transform="translate(-109.70363)"/><path class="cls-3" d="M347.6254,445.5971a9.77069,9.77069,0,0,0-13.7808,1.00024c-1.35128,1.56274-2.766,3.10275-4.20715,4.57669a9.77075,9.77075,0,1,0,13.97693,13.65708c1.71606-1.75676,3.40357-3.59071,5.01126-5.45215A9.7734,9.7734,0,0,0,347.6254,445.5971Z" transform="translate(-109.70363)"/><path class="cls-3" d="M368.77266,373.48457a9.76288,9.76288,0,0,0-10.05739,9.47375c-.06079,2.06551-.1882,4.15481-.37746,6.20921a9.771,9.771,0,0,0,8.83669,10.62253c.30346.028.60481.04124.90456.04124a9.77146,9.77146,0,0,0,9.71746-8.8774c.22521-2.4525.37746-4.94517.45042-7.41141A9.77273,9.77273,0,0,0,368.77266,373.48457Z" transform="translate(-109.70363)"/><path class="cls-3" d="M364.42753,411.37161a9.76933,9.76933,0,0,0-12.66108,5.53621c-.7523,1.92172-1.57438,3.84871-2.444,5.72443a9.77023,9.77023,0,1,0,17.73048,8.2134c1.03408-2.2331,2.01423-4.52487,2.90926-6.814A9.77045,9.77045,0,0,0,364.42753,411.37161Z" transform="translate(-109.70363)"/><path class="cls-3" d="M331.15419,295.87707a9.76954,9.76954,0,0,0-2.03749-13.66661c-1.97457-1.46282-4.02211-2.88336-6.085-4.22512a9.77012,9.77012,0,0,0-10.6532,16.3808c1.7335,1.12606,3.45167,2.32033,5.11117,3.549a9.76747,9.76747,0,0,0,13.6645-2.038Z" transform="translate(-109.70363)"/></g></g></svg>