<?xml version="1.0" encoding="UTF-8" standalone="no" ?>
<!DOCTYPE svg PUBLIC "-//W3C//DTD SVG 1.1//EN" "http://www.w3.org/Graphics/SVG/1.1/DTD/svg11.dtd">
<svg xmlns="http://www.w3.org/2000/svg" xmlns:xlink="http://www.w3.org/1999/xlink" version="1.1" width="640" height="480" viewBox="0 0 640 480" xml:space="preserve">
<desc>Created with Fabric.js 3.6.3</desc>
<defs>
</defs>
<g transform="matrix(1 0 0 1 256 256)"  >
<g style=""   >
		<g transform="matrix(1 0 0 1 0 -141.5)"  >
<polygon style="stroke: none; stroke-width: 1; stroke-dasharray: none; stroke-linecap: butt; stroke-dashoffset: 0; stroke-linejoin: miter; stroke-miterlimit: 4; fill: rgb(2,2,1); fill-rule: nonzero; opacity: 1;"  points="195.5,18 195.48,18 97.74,-25 0,-68 -97.74,-25 -195.48,18 -195.5,18 -195.5,68 195.5,68 " />
</g>
		<g transform="matrix(1 0 0 1 -126 34.5)"  >
<path style="stroke: none; stroke-width: 1; stroke-dasharray: none; stroke-linecap: butt; stroke-dashoffset: 0; stroke-linejoin: miter; stroke-miterlimit: 4; fill: rgb(2,2,1); fill-rule: nonzero; opacity: 1;"  transform=" translate(-130, -290.5)" d="M 99 365.5 c -5.799 0 -10.5 4.701 -10.5 10.5 s 4.701 10.5 10.5 10.5 h 62 c 5.799 0 10.5 -4.701 10.5 -10.5 s -4.701 -10.5 -10.5 -10.5 h -3.5 v -150 h 3.5 c 5.799 0 10.5 -4.701 10.5 -10.5 s -4.701 -10.5 -10.5 -10.5 H 99 c -5.799 0 -10.5 4.701 -10.5 10.5 s 4.701 10.5 10.5 10.5 h 3.5 v 150 H 99 z" stroke-linecap="round" />
</g>
		<g transform="matrix(1 0 0 1 0 34.5)"  >
<path style="stroke: none; stroke-width: 1; stroke-dasharray: none; stroke-linecap: butt; stroke-dashoffset: 0; stroke-linejoin: miter; stroke-miterlimit: 4; fill: rgb(2,2,1); fill-rule: nonzero; opacity: 1;"  transform=" translate(-256, -290.5)" d="M 225 365.5 c -5.799 0 -10.5 4.701 -10.5 10.5 s 4.701 10.5 10.5 10.5 h 62 c 5.799 0 10.5 -4.701 10.5 -10.5 s -4.701 -10.5 -10.5 -10.5 h -3.5 v -150 h 3.5 c 5.799 0 10.5 -4.701 10.5 -10.5 s -4.701 -10.5 -10.5 -10.5 h -62 c -5.799 0 -10.5 4.701 -10.5 10.5 s 4.701 10.5 10.5 10.5 h 3.5 v 150 H 225 z" stroke-linecap="round" />
</g>
		<g transform="matrix(1 0 0 1 128 34.5)"  >
<path style="stroke: none; stroke-width: 1; stroke-dasharray: none; stroke-linecap: butt; stroke-dashoffset: 0; stroke-linejoin: miter; stroke-miterlimit: 4; fill: rgb(2,2,1); fill-rule: nonzero; opacity: 1;"  transform=" translate(-384, -290.5)" d="M 353 365.5 c -5.799 0 -10.5 4.701 -10.5 10.5 s 4.701 10.5 10.5 10.5 h 62 c 5.799 0 10.5 -4.701 10.5 -10.5 s -4.701 -10.5 -10.5 -10.5 h -3.5 v -150 h 3.5 c 5.799 0 10.5 -4.701 10.5 -10.5 s -4.701 -10.5 -10.5 -10.5 h -62 c -5.799 0 -10.5 4.701 -10.5 10.5 s 4.701 10.5 10.5 10.5 h 3.5 v 150 H 353 z" stroke-linecap="round" />
</g>
		<g transform="matrix(1 0 0 1 0 155.5)"  >
<path style="stroke: none; stroke-width: 1; stroke-dasharray: none; stroke-linecap: butt; stroke-dashoffset: 0; stroke-linejoin: miter; stroke-miterlimit: 4; fill: rgb(2,2,1); fill-rule: nonzero; opacity: 1;"  transform=" translate(-256, -411.5)" d="M 60.51 408.5 v 6 c 0 5.522 4.477 10 10 10 h 370.98 c 5.522 0 10 -4.478 10 -10 v -6 c 0 -5.522 -4.478 -10 -10 -10 H 70.51 C 64.987 398.5 60.51 402.977 60.51 408.5 z" stroke-linecap="round" />
</g>
		<g transform="matrix(1 0 0 1 0 195)"  >
<path style="stroke: none; stroke-width: 1; stroke-dasharray: none; stroke-linecap: butt; stroke-dashoffset: 0; stroke-linejoin: miter; stroke-miterlimit: 4; fill: rgb(2,2,1); fill-rule: nonzero; opacity: 1;"  transform=" translate(-256, -451)" d="M 467.5 436.5 h -423 c -5.523 0 -10 4.478 -10 10 v 9 c 0 5.522 4.477 10 10 10 h 423 c 5.522 0 10 -4.478 10 -10 v -9 C 477.5 440.977 473.023 436.5 467.5 436.5 z" stroke-linecap="round" />
</g>
</g>
</g>
<g transform="matrix(-0.49 0 0 0.49 556.57 298.53)"  >
<path style="stroke: none; stroke-width: 1; stroke-dasharray: none; stroke-linecap: butt; stroke-dashoffset: 0; stroke-linejoin: miter; stroke-miterlimit: 4; fill: rgb(0,0,0); fill-rule: nonzero; opacity: 1;"  transform=" translate(-256, -257.8)" d="M 258 21.89 c -0.5 0 -1.2 0 -1.8 0.12 c -4.6 0.85 -10.1 5.1 -13.7 14.81 c -3.8 9.7 -4.6 23.53 -1.3 38.34 c 3.4 14.63 10.4 27.24 18.2 34.94 c 7.6 7.7 14.5 9.8 19.1 9 c 4.8 -0.7 10.1 -5.1 13.7 -14.7 c 3.8 -9.64 4.8 -23.66 1.4 -38.35 c -3.5 -14.8 -10.4 -27.29 -18.2 -34.94 c -6.6 -6.8 -12.7 -9.22 -17.4 -9.22 z M 373.4 151.4 c -11 0.3 -24.9 3.2 -38.4 8.9 c -15.6 6.8 -27.6 15.9 -34.2 24.5 c -6.6 8.3 -7.2 14.6 -5.1 18.3 c 2.2 3.7 8.3 7.2 20 7.7 c 11.7 0.7 27.5 -2.2 43 -8.8 c 15.5 -6.7 27.7 -15.9 34.3 -24.3 c 6.6 -8.3 7.1 -14.8 5 -18.5 c -2.1 -3.8 -8.3 -7.1 -20 -7.5 c -1.6 -0.3 -3 -0.3 -4.6 -0.3 z m -136.3 92.9 c -6.6 0.1 -12.6 0.9 -18 2.3 c -11.8 3 -18.6 8.4 -20.8 14.9 c -2.5 6.5 0 14.3 7.8 22.7 c 8.2 8.2 21.7 16.1 38.5 20.5 c 16.7 4.4 32.8 4.3 44.8 1.1 c 12.1 -3.1 18.9 -8.6 21.1 -15 c 2.3 -6.5 0 -14.2 -8.1 -22.7 c -7.9 -8.2 -21.4 -16.1 -38.2 -20.4 c -9.5 -2.5 -18.8 -3.5 -27.1 -3.4 z m 160.7 58.1 L 336 331.7 c 4.2 0.2 14.7 0.5 14.7 0.5 l 6.6 8.7 l 54.7 -28.5 l -14.2 -10 z m -54.5 0.1 l -57.4 27.2 c 5.5 0.3 18.5 0.5 23.7 0.8 l 49.8 -23.6 l -16.1 -4.4 z m 92.6 10.8 l -70.5 37.4 l 14.5 18.7 l 74.5 -44.6 l -18.5 -11.5 z m -278.8 9.1 a 40.33 40.33 0 0 0 -9 1 c -71.5 16.5 -113.7 17.9 -126.2 17.9 H 18 v 107.5 s 11.6 -1.7 30.9 -1.8 c 37.3 0 103 6.4 167 43.8 c 3.4 2.1 10.7 2.9 19.8 2.9 c 24.3 0 61.2 -5.8 69.7 -9 C 391 452.6 494 364.5 494 364.5 l -32.5 -28.4 s -79.8 50.9 -89.9 55.8 c -91.1 44.7 -164.9 16.8 -164.9 16.8 s 119.9 3 158.4 -27.3 l -22.6 -34 s -82.8 -2.3 -112.3 -6.2 c -15.4 -2 -48.7 -18.8 -73.1 -18.8 z" stroke-linecap="round" />
</g>
</svg>