<?xml version="1.0" encoding="UTF-8" standalone="no" ?>
<!DOCTYPE svg PUBLIC "-//W3C//DTD SVG 1.1//EN" "http://www.w3.org/Graphics/SVG/1.1/DTD/svg11.dtd">
<svg xmlns="http://www.w3.org/2000/svg" xmlns:xlink="http://www.w3.org/1999/xlink" version="1.1" width="640" height="480" viewBox="0 0 640 480" xml:space="preserve">
<desc>Created with Fabric.js 3.6.3</desc>
<defs>
</defs>
<g transform="matrix(1 0 0 1 256 256)"  >
<g style=""   >
		<g transform="matrix(1 0 0 1 0 -141.5)"  >
<polygon style="stroke: none; stroke-width: 1; stroke-dasharray: none; stroke-linecap: butt; stroke-dashoffset: 0; stroke-linejoin: miter; stroke-miterlimit: 4; fill: rgb(2,2,1); fill-rule: nonzero; opacity: 1;"  points="195.5,18 195.48,18 97.74,-25 0,-68 -97.74,-25 -195.48,18 -195.5,18 -195.5,68 195.5,68 " />
</g>
		<g transform="matrix(1 0 0 1 -126 34.5)"  >
<path style="stroke: none; stroke-width: 1; stroke-dasharray: none; stroke-linecap: butt; stroke-dashoffset: 0; stroke-linejoin: miter; stroke-miterlimit: 4; fill: rgb(2,2,1); fill-rule: nonzero; opacity: 1;"  transform=" translate(-130, -290.5)" d="M 99 365.5 c -5.799 0 -10.5 4.701 -10.5 10.5 s 4.701 10.5 10.5 10.5 h 62 c 5.799 0 10.5 -4.701 10.5 -10.5 s -4.701 -10.5 -10.5 -10.5 h -3.5 v -150 h 3.5 c 5.799 0 10.5 -4.701 10.5 -10.5 s -4.701 -10.5 -10.5 -10.5 H 99 c -5.799 0 -10.5 4.701 -10.5 10.5 s 4.701 10.5 10.5 10.5 h 3.5 v 150 H 99 z" stroke-linecap="round" />
</g>
		<g transform="matrix(1 0 0 1 0 34.5)"  >
<path style="stroke: none; stroke-width: 1; stroke-dasharray: none; stroke-linecap: butt; stroke-dashoffset: 0; stroke-linejoin: miter; stroke-miterlimit: 4; fill: rgb(2,2,1); fill-rule: nonzero; opacity: 1;"  transform=" translate(-256, -290.5)" d="M 225 365.5 c -5.799 0 -10.5 4.701 -10.5 10.5 s 4.701 10.5 10.5 10.5 h 62 c 5.799 0 10.5 -4.701 10.5 -10.5 s -4.701 -10.5 -10.5 -10.5 h -3.5 v -150 h 3.5 c 5.799 0 10.5 -4.701 10.5 -10.5 s -4.701 -10.5 -10.5 -10.5 h -62 c -5.799 0 -10.5 4.701 -10.5 10.5 s 4.701 10.5 10.5 10.5 h 3.5 v 150 H 225 z" stroke-linecap="round" />
</g>
		<g transform="matrix(1 0 0 1 128 34.5)"  >
<path style="stroke: none; stroke-width: 1; stroke-dasharray: none; stroke-linecap: butt; stroke-dashoffset: 0; stroke-linejoin: miter; stroke-miterlimit: 4; fill: rgb(2,2,1); fill-rule: nonzero; opacity: 1;"  transform=" translate(-384, -290.5)" d="M 353 365.5 c -5.799 0 -10.5 4.701 -10.5 10.5 s 4.701 10.5 10.5 10.5 h 62 c 5.799 0 10.5 -4.701 10.5 -10.5 s -4.701 -10.5 -10.5 -10.5 h -3.5 v -150 h 3.5 c 5.799 0 10.5 -4.701 10.5 -10.5 s -4.701 -10.5 -10.5 -10.5 h -62 c -5.799 0 -10.5 4.701 -10.5 10.5 s 4.701 10.5 10.5 10.5 h 3.5 v 150 H 353 z" stroke-linecap="round" />
</g>
		<g transform="matrix(1 0 0 1 0 155.5)"  >
<path style="stroke: none; stroke-width: 1; stroke-dasharray: none; stroke-linecap: butt; stroke-dashoffset: 0; stroke-linejoin: miter; stroke-miterlimit: 4; fill: rgb(2,2,1); fill-rule: nonzero; opacity: 1;"  transform=" translate(-256, -411.5)" d="M 60.51 408.5 v 6 c 0 5.522 4.477 10 10 10 h 370.98 c 5.522 0 10 -4.478 10 -10 v -6 c 0 -5.522 -4.478 -10 -10 -10 H 70.51 C 64.987 398.5 60.51 402.977 60.51 408.5 z" stroke-linecap="round" />
</g>
		<g transform="matrix(1 0 0 1 0 195)"  >
<path style="stroke: none; stroke-width: 1; stroke-dasharray: none; stroke-linecap: butt; stroke-dashoffset: 0; stroke-linejoin: miter; stroke-miterlimit: 4; fill: rgb(2,2,1); fill-rule: nonzero; opacity: 1;"  transform=" translate(-256, -451)" d="M 467.5 436.5 h -423 c -5.523 0 -10 4.478 -10 10 v 9 c 0 5.522 4.477 10 10 10 h 423 c 5.522 0 10 -4.478 10 -10 v -9 C 477.5 440.977 473.023 436.5 467.5 436.5 z" stroke-linecap="round" />
</g>
</g>
</g>
<g transform="matrix(0.62 0 0 0.62 562.29 154.61)"  >
<path style="stroke: none; stroke-width: 1; stroke-dasharray: none; stroke-linecap: butt; stroke-dashoffset: 0; stroke-linejoin: miter; stroke-miterlimit: 4; fill: rgb(0,0,0); fill-rule: nonzero; opacity: 1;"  transform=" translate(-302.09, -251.5)" d="M 298.9 24.31 c -14.9 0.3 -25.6 3.2 -32.7 8.4 l -97.3 52.1 l -54.1 73.59 c -11.4 17.6 -3.3 51.6 32.3 29.8 l 39 -51.4 c 49.5 -42.69 150.5 -23.1 102.6 62.6 c -23.5 49.6 -12.5 73.8 17.8 84 l 13.8 -46.4 c 23.9 -53.8 68.5 -63.5 66.7 -106.9 l 107.2 7.7 l -1 -112.09 l -194.3 -1.4 z M 244.8 127.7 c -17.4 -0.3 -34.5 6.9 -46.9 17.3 l -39.1 51.4 c 10.7 8.5 21.5 3.9 32.2 -6.4 c 12.6 6.4 22.4 -3.5 30.4 -23.3 c 3.3 -13.5 8.2 -23 23.4 -39 z m -79.6 96 c -0.4 0 -0.9 0 -1.3 0.1 c -3.3 0.7 -7.2 4.2 -9.8 12.2 c -2.7 8 -3.3 19.4 -0.9 31.6 c 2.4 12.1 7.4 22.4 13 28.8 c 5.4 6.3 10.4 8.1 13.7 7.4 c 3.4 -0.6 7.2 -4.2 9.8 -12.1 c 2.7 -8 3.4 -19.5 1 -31.6 c -2.5 -12.2 -7.5 -22.5 -13 -28.8 c -4.8 -5.6 -9.2 -7.6 -12.5 -7.6 z m 82.6 106.8 c -7.9 0.1 -17.8 2.6 -27.5 7.3 c -11.1 5.5 -19.8 13.1 -24.5 20.1 c -4.7 6.9 -5.1 12.1 -3.6 15.2 c 1.5 3 5.9 5.9 14.3 6.3 c 8.4 0.5 19.7 -1.8 30.8 -7.3 c 11.1 -5.5 19.8 -13 24.5 -20 c 4.7 -6.9 5.1 -12.2 3.6 -15.2 c -1.5 -3.1 -5.9 -5.9 -14.3 -6.3 c -1.1 -0.1 -2.1 -0.1 -3.3 -0.1 z m -97.6 95.6 c -4.7 0.1 -9 0.8 -12.8 1.9 c -8.5 2.5 -13.4 7 -15 12.3 c -1.7 5.4 0 11.8 5.7 18.7 c 5.8 6.8 15.5 13.3 27.5 16.9 c 11.9 3.6 23.5 3.5 32.1 0.9 c 8.6 -2.5 13.5 -7 15.1 -12.3 c 1.6 -5.4 0 -11.8 -5.8 -18.7 c -5.7 -6.8 -15.4 -13.3 -27.4 -16.9 c -6.8 -2 -13.4 -2.9 -19.4 -2.8 z" stroke-linecap="round" />
</g>
</svg>