<?xml version="1.0" ?><!DOCTYPE svg  PUBLIC '-//W3C//DTD SVG 1.1//EN'  'http://www.w3.org/Graphics/SVG/1.1/DTD/svg11.dtd'><svg enable-background="new 0 0 64 64" height="64px" id="Layer_1" version="1.1" viewBox="0 0 64 64" width="64px" xml:space="preserve" xmlns="http://www.w3.org/2000/svg" xmlns:xlink="http://www.w3.org/1999/xlink"><g><path d="M55.982,35.444H7.498c-2.206,0-2.572,1.408-2.604,2.229C5.987,52.32,17.693,63.865,32,63.865   c14.085,0,25.672-11.178,27.074-25.497c0.003-0.023,0.003-0.044,0.006-0.067c0.016-0.18,0.013-0.364,0.025-0.546   C59.021,35.697,56.752,35.463,55.982,35.444z" fill="#241F20"/><path d="M23.119,16.836c0.419,0.106,0.854,0.177,1.302,0.203v0.028l0.291,0.001c0.038,0,0.072,0.012,0.109,0.012   c0.038,0,0.075-0.01,0.113-0.012l0.823,0.004v0.006l14.46-0.002c1.942,0,2.778,0.521,3.129,0.87   c0.21,0.438,0.338,0.924,0.338,1.442c0,1.147-0.579,2.158-1.455,2.762c-0.019,0.016-0.044,0.025-0.06,0.039   c-0.115,0.075-0.237,0.135-0.363,0.196c-0.782,0.314-2.002,0.311-2.002,0.311h-6.384l-9.358-0.001c0,0-1.126-0.016-2.212,0.317   c-0.028,0.01-0.056,0.019-0.087,0.03c-0.113,0.035-0.225,0.076-0.338,0.121c-0.576,0.24-1.164,0.599-1.677,1.146   c-0.013,0.013-0.025,0.023-0.038,0.035c-0.016,0.016-0.031,0.024-0.044,0.04c-0.016,0.018-0.019,0.026-0.031,0.044   c-1.042,1.017-1.694,2.425-1.694,3.998c0,0.367,0.048,0.72,0.125,1.062c0.088,0.316,0.397,1.043,1.452,1.047h0.485   c1.177-0.026,1.477-2.188,1.477-2.188l0.009,0.001c0.069-0.253,0.172-0.492,0.313-0.707c0.006-0.009,0.009-0.017,0.019-0.028   c0.016-0.021,0.034-0.039,0.05-0.061c0.288-0.34,1.099-0.962,3.217-0.962l14.463,0.001v-0.006l0.82-0.003   c0.04,0.001,0.075,0.011,0.112,0.011s0.075-0.011,0.112-0.011l0.288-0.002v-0.028c0.447-0.026,0.886-0.097,1.305-0.203   c3.092-0.62,5.423-3.347,5.423-6.621c0-1.01-0.237-1.958-0.635-2.813c-0.294-0.756-0.732-1.439-1.305-1.998   c-0.013-0.018-0.016-0.026-0.031-0.044c-0.013-0.016-0.028-0.025-0.044-0.041c-0.013-0.011-0.025-0.021-0.038-0.034   c-0.222-0.236-0.46-0.423-0.704-0.595c-0.074-0.055-0.149-0.107-0.228-0.156c-0.179-0.111-0.36-0.202-0.539-0.285   c-1.746-0.76-4.103-0.577-4.103-0.577H28.53h-0.535h-2.491c0,0-1.221,0.003-2.006-0.312c-0.122-0.061-0.248-0.12-0.36-0.195   c-0.019-0.014-0.044-0.023-0.06-0.039c-0.879-0.604-1.455-1.614-1.455-2.762c0-1.853,1.502-3.354,3.354-3.354h6.909h0.801h0.626   c2.882,0,3.401-2.1,3.492-3.062V1.172c0-0.881-0.642-1.021-0.738-1.037c-0.939,0.028-2.441,0.263-2.441,1.513   c0,0.296,0,0.527,0,0.734C33.596,2.759,33.367,3.46,32.1,3.46h-7.601c-0.012,0.001-0.028,0.001-0.041,0.001   c-0.003,0-0.006-0.001-0.009-0.001c-0.016,0-0.028,0.005-0.044,0.005c-0.473,0.024-0.923,0.066-1.305,0.131   c-0.006,0.002-0.013,0.002-0.019,0.003c-0.269,0.047-0.5,0.104-0.673,0.176c-0.059,0.024-0.097,0.05-0.131,0.075   c-2.66,0.907-4.584,3.399-4.584,6.364C17.693,13.489,20.024,16.216,23.119,16.836z" fill="#241F20"/></g></svg>