<svg style="height: 512px; width: 512px;" xmlns="http://www.w3.org/2000/svg" viewBox="0 0 512 512"><g class="" style="" transform="translate(0,0)"><path d="M57 39v16h110V39H57zm32 34v318h46V73H89zm334 21.56l-46 23.04V391h46V94.56zM254.2 187L233 197.6V391h46V211.7L254.2 187zM73 409v30h78v-30H73zm144 0v30h78v-30h-78zm144 0v30h78v-30h-78zM38.49 457l-10 30H483.5l-10-30H38.49z" fill="#000000" fill-opacity="1" transform="translate(0, 0) scale(1, 1) rotate(-360, 256, 256) skewX(0) skewY(0)"></path></g></svg>