<?xml version="1.0" ?><!DOCTYPE svg  PUBLIC '-//W3C//DTD SVG 1.1//EN'  'http://www.w3.org/Graphics/SVG/1.1/DTD/svg11.dtd'><svg height="100%" style="fill-rule:evenodd;clip-rule:evenodd;stroke-linejoin:round;stroke-miterlimit:2;" version="1.1" viewBox="0 0 134 134" width="100%" xml:space="preserve" xmlns="http://www.w3.org/2000/svg" xmlns:serif="http://www.serif.com/" xmlns:xlink="http://www.w3.org/1999/xlink"><path d="M25.983,32.57c-0.891,-1.58 -2.741,-2.438 -4.577,-2.009l-14.02,3.273c-1.122,0.261 -2.085,0.976 -2.661,1.974c-0.576,0.998 -0.713,2.189 -0.379,3.292l8.235,27.17l-5.195,1.213c-1.122,0.262 -2.085,0.976 -2.661,1.974c-0.576,0.998 -0.713,2.189 -0.379,3.292l10.967,36.186c0.637,2.101 2.796,3.348 4.935,2.849l14.02,-3.273c1.122,-0.262 2.085,-0.977 2.661,-1.974c0.425,-0.736 0.611,-1.576 0.546,-2.409c8.634,-0.024 25.647,-0.201 38.689,-1.14c8.569,-0.618 15.538,-1.75 18.064,-3.114c6.397,-3.454 26.722,-17.555 32.651,-26.176c2.66,-3.869 2.711,-7.323 1.327,-9.535c-1.731,-2.766 -3.765,-4.414 -6.115,-5.252c-2.236,-0.797 -4.858,-0.866 -8.048,-0.029c-2.821,0.741 -6.274,2.308 -10.6,4.577c-0.236,-0.616 -0.55,-1.223 -0.951,-1.814c7.7,-5.4 17.612,-13.235 22.623,-19.247c1.943,-2.331 3.207,-4.503 3.713,-6.251c0.645,-2.227 0.325,-4.12 -0.622,-5.633c-1.731,-2.766 -3.765,-4.414 -6.115,-5.252c-2.236,-0.797 -4.858,-0.866 -8.048,-0.029c-2.821,0.741 -6.274,2.308 -10.6,4.577c-0.571,-1.493 -1.605,-2.931 -3.206,-4.221c-0.843,-0.679 -2.441,-1.475 -4.692,-1.881c-3.693,-0.667 -9.673,-0.497 -15.967,2.434c-2.878,1.34 -5.32,0.499 -7.926,-0.541c-2.563,-1.022 -5.232,-2.309 -8.248,-3.215c-6.908,-2.076 -15.307,-0.395 -22.867,2.631c-5.748,2.3 -10.988,5.305 -14.554,7.553Zm-12.372,42.017l5.887,-1.374c0,-0 8.545,28.194 8.545,28.194c0,-0 -5.887,1.374 -5.887,1.374l-8.545,-28.194Zm78.565,-4.911c0.138,-0.098 0.284,-0.189 0.436,-0.271c1.085,-0.586 1.963,-1.234 2.555,-1.955c0.264,-0.322 0.536,-0.607 0.499,-0.941c-0.121,-1.091 -1.803,-1.016 -2.669,-1.091c-2.566,-0.221 -6.148,0.18 -9.901,1.927c-4.503,2.097 -8.451,1.744 -12.475,0.404c-2.995,-0.997 -6.043,-2.66 -9.615,-3.733c-5.263,-1.582 -11.613,0.082 -17.373,2.387c-6.341,2.538 -11.999,6.023 -15.05,8.053l6.468,21.343c7.328,0.002 26.312,-0.1 40.514,-1.123c6.946,-0.5 12.657,-1.03 14.705,-2.135c5.136,-2.773 20.114,-12.955 27.421,-20.759c1.234,-1.317 2.431,-3.174 2.921,-3.966c-0.387,-0.502 -0.801,-0.871 -1.32,-1.056c-1.588,-0.566 -3.526,0.142 -6.229,1.264c-3.977,1.652 -9.002,4.455 -15.525,8.157c-0.311,0.191 -0.633,0.377 -0.967,0.557c-0.048,0.026 -0.097,0.051 -0.146,0.075c-3.904,2.218 -8.324,4.736 -13.351,7.505c-2.123,1.17 -5.15,1.642 -8.375,1.506c-3.919,-0.166 -8.151,-1.141 -10.618,-1.844c-2.211,-0.63 -3.495,-2.938 -2.865,-5.149c0.63,-2.212 2.938,-3.496 5.149,-2.865c2.019,0.575 5.479,1.396 8.687,1.532c1.527,0.065 2.996,0.075 4.001,-0.479c4.9,-2.699 9.25,-5.159 13.123,-7.343Zm-64.851,-4.289l-7.827,-25.823c0,-0 -5.887,1.374 -5.887,1.374l7.102,23.434l0.693,-0.162c1.836,-0.428 3.686,0.429 4.577,2.009c0.424,-0.267 0.872,-0.545 1.342,-0.832Zm64.851,-29.36c0.138,-0.098 0.284,-0.189 0.436,-0.271c1.085,-0.586 1.963,-1.234 2.555,-1.955c0.264,-0.322 0.47,-0.606 0.499,-0.941c0.094,-1.091 -1.803,-1.016 -2.669,-1.091c-2.566,-0.222 -6.148,0.18 -9.901,1.927c-4.503,2.097 -8.451,1.744 -12.475,0.404c-2.995,-0.997 -6.043,-2.66 -9.615,-3.734c-5.263,-1.581 -11.613,0.083 -17.373,2.388c-6.341,2.538 -11.999,6.023 -15.05,8.053l6.198,20.45c1.825,-0.908 3.76,-1.792 5.756,-2.591c7.56,-3.026 15.959,-4.707 22.867,-2.631c3.016,0.906 5.685,2.193 8.248,3.215c2.606,1.04 5.048,1.881 7.926,0.541c5.611,-2.613 10.973,-3.031 14.686,-2.619c7.335,-4.844 19.019,-13.594 24.45,-20.109c0.793,-0.952 1.553,-2.245 1.909,-2.882c-0.39,-0.509 -0.807,-0.883 -1.331,-1.07c-1.588,-0.566 -3.526,0.142 -6.229,1.264c-6.519,2.708 -15.856,8.509 -29.989,16.294c-2.123,1.17 -5.15,1.642 -8.375,1.506c-3.919,-0.167 -8.151,-1.142 -10.618,-1.844c-2.211,-0.631 -3.495,-2.938 -2.865,-5.149c0.63,-2.212 2.938,-3.496 5.149,-2.866c2.019,0.576 5.479,1.397 8.687,1.533c1.527,0.064 2.996,0.075 4.001,-0.479c4.9,-2.699 9.25,-5.159 13.123,-7.343Z"/></svg>